<svg width="50" height="48" viewBox="0 0 50 48" fill="none" xmlns="http://www.w3.org/2000/svg">
<path d="M19.6001 30.9251C19.6001 27.9451 22.0301 25.5151 25.0001 25.5151C25.5601 25.5151 26.0001 25.0751 26.0001 24.5151C26.0001 23.9651 25.5601 23.5151 25.0001 23.5151C20.9201 23.5151 17.6001 26.8351 17.6001 30.9251C17.6001 31.4751 18.0501 31.9251 18.6001 31.9251C19.1501 31.9251 19.6001 31.4751 19.6001 30.9251Z" fill="white"/>
<path d="M48.4 14.745C47.82 14.355 47.12 14.125 46.37 14.125H36.56C35.83 14.125 35.18 13.625 34.99 12.915L34.57 11.355C34.15 9.77504 32.7 8.66504 31.06 8.66504H18.95C18.23 8.66504 17.56 8.88504 16.99 9.25504C16.9 9.31504 16.82 9.35504 16.74 9.41504C16.73 9.42504 16.72 9.43504 16.71 9.44504C16.11 9.91504 15.65 10.575 15.44 11.365L15.3 11.885L15.02 12.915C14.83 13.625 14.18 14.125 13.45 14.125H11.5V11.235C11.5 10.675 11.06 10.235 10.5 10.235H5.89C5.34 10.235 4.89 10.675 4.89 11.235V14.125H3.64C1.63 14.125 0 15.755 0 17.765V36.225H14.92C14.08 34.635 13.6 32.835 13.6 30.925C13.6 30.135 13.68 29.365 13.83 28.625C14.16 27.015 14.85 25.535 15.78 24.245C17.86 21.385 21.21 19.515 25 19.515C31.29 19.515 36.41 24.635 36.41 30.925C36.41 32.835 35.93 34.635 35.09 36.225H50V17.765C50 16.505 49.37 15.405 48.4 14.745ZM41.77 21.665H38.24C37.68 21.665 37.24 21.215 37.24 20.665C37.24 20.115 37.68 19.665 38.24 19.665H41.77C42.33 19.665 42.77 20.115 42.77 20.665C42.77 21.215 42.33 21.665 41.77 21.665Z" fill="white"/>
<path d="M32.51 39.4851C30.5 41.2451 27.88 42.3251 25 42.3251C23.25 42.3251 21.6 41.9151 20.12 41.2051C18.63 40.4951 17.31 39.4751 16.27 38.2251H0V44.0851C0 45.3351 0.64 46.4451 1.61 47.0951C2.19 47.4851 2.89 47.7151 3.64 47.7151H46.37C48.37 47.7151 50 46.0851 50 44.0851V38.2251H33.74C33.37 38.6751 32.95 39.0951 32.51 39.4851Z" fill="white"/>
<path d="M18.87 6.94534C19.07 7.16534 19.34 7.27534 19.62 7.27534C19.86 7.27534 20.1 7.19534 20.29 7.02534C20.7 6.65534 20.74 6.02534 20.37 5.61534L17.12 1.97534C16.75 1.56534 16.12 1.52534 15.71 1.89534C15.3 2.26534 15.26 2.89534 15.63 3.30534L18.87 6.94534Z" fill="white"/>
<path d="M30.39 7.27534C30.66 7.27534 30.94 7.16534 31.14 6.94534L34.39 3.30534C34.76 2.89534 34.72 2.26534 34.31 1.89534C33.9 1.52534 33.27 1.56534 32.9 1.97534L29.65 5.61534C29.28 6.02534 29.32 6.65534 29.73 7.02534C29.91 7.18534 30.15 7.27534 30.39 7.27534Z" fill="white"/>
<path d="M25 6.88516C25.55 6.88516 26 6.43516 26 5.88516V1.28516C26 0.735156 25.55 0.285156 25 0.285156C24.45 0.285156 24 0.735156 24 1.28516V5.88516C24 6.44516 24.45 6.88516 25 6.88516Z" fill="white"/>
</svg>
