<svg width="60" height="52" viewBox="0 0 60 52" fill="none" xmlns="http://www.w3.org/2000/svg">
<path d="M50.4994 23.4082V27.2763C54.2856 29.1682 56.4856 31.51 56.4856 33.8331C56.4856 39.1574 45.7734 43.34 35.1754 44.2216C34.2077 44.3013 33.4885 45.1506 33.5693 46.117C33.6452 47.0466 34.4467 47.797 35.4647 47.7243C44.6901 46.9648 60 42.9839 60 33.8331C60 28.8353 55.1099 25.3971 50.4994 23.4082Z" fill="white"/>
<path d="M19.4322 38.2533C18.4561 37.2601 16.7598 37.7455 16.4619 39.1099L15.6853 42.6661C4.05188 39.535 -1.53351 32.8004 9.52149 27.2763V23.4082C-4.98468 29.666 -2.70831 41.4198 14.9344 46.1044L14.2361 49.3017C13.9366 50.6726 15.2952 51.8321 16.6055 51.3081L25.3915 47.7936C26.5538 47.3289 26.8723 45.8263 25.9924 44.9306L19.4322 38.2533Z" fill="white"/>
<path d="M30.7818 0.791431C30.2399 0.484282 29.5762 0.487095 29.0369 0.798462L14.7926 9.02233C17.205 10.4151 28.6974 17.0503 30.0083 17.8072L45.2292 8.97826L30.7818 0.791431Z" fill="white"/>
<path d="M13.0355 28.5138C13.0355 29.1417 13.3704 29.7216 13.9141 30.0356L28.2532 38.3143V20.8519L13.0354 12.0659L13.0355 28.5138Z" fill="white"/>
<path d="M46.9854 28.5138V12.0225L31.7677 20.8496V38.3143L46.1069 30.0356C46.6506 29.7216 46.9854 29.1417 46.9854 28.5138Z" fill="white"/>
</svg>
