<svg width="54" height="60" viewBox="0 0 54 60" fill="none" xmlns="http://www.w3.org/2000/svg">
<path d="M39.0308 21.5815L27.554 16.4804C27.2015 16.3236 26.799 16.3236 26.4464 16.4804L14.9697 21.5815L27.0002 27.1341L39.0308 21.5815Z" fill="white"/>
<path d="M28.364 44.5225L39.8267 39.4278C40.3191 39.2091 40.6367 38.7207 40.6367 38.1814V23.8447L28.364 29.5087V44.5225Z" fill="white"/>
<path d="M25.6361 29.5082L13.3634 23.8442V38.1814C13.3634 38.7207 13.6805 39.2091 14.1734 39.4278L25.6361 44.5225V29.5082Z" fill="white"/>
<path d="M23.8735 6.41863L25.6363 4.65532V9.54523C25.6363 10.2983 26.247 10.909 27.0001 10.909C27.7532 10.909 28.3639 10.2983 28.3639 9.54523V4.65532L30.1267 6.41863C30.4698 6.77069 30.9757 6.91051 31.4506 6.78517C31.9255 6.66033 32.2965 6.28929 32.4219 5.81388C32.5472 5.33897 32.4069 4.8331 32.0553 4.49053L27.9644 0.399627C27.4316 -0.133209 26.5686 -0.133209 26.0358 0.399627L21.9449 4.49053C21.4241 5.02486 21.4296 5.8788 21.9574 6.40664C22.4847 6.93448 23.3392 6.93948 23.8735 6.41863Z" fill="white"/>
<path d="M30.1267 53.5812L28.3639 55.344V50.4541C28.3639 49.7011 27.7532 49.0908 27.0001 49.0908C26.247 49.0908 25.6363 49.7011 25.6363 50.4541V55.344L23.8735 53.5812C23.3392 53.0599 22.4847 53.0654 21.9574 53.5932C21.4296 54.1211 21.4241 54.975 21.9449 55.5093L26.0358 59.6002C26.5681 60.1331 27.4321 60.1331 27.9644 59.6002L32.0553 55.5093C32.5762 54.975 32.5707 54.1211 32.0428 53.5932C31.5155 53.0654 30.661 53.0599 30.1267 53.5812Z" fill="white"/>
<path d="M9.96834 18.5912L5.73411 16.1467L8.14161 15.5015C8.61852 15.3812 8.99405 15.0136 9.12339 14.5387C9.25323 14.0643 9.1174 13.5564 8.76734 13.2104C8.41777 12.8643 7.9089 12.7335 7.43599 12.8678L1.84796 14.3644C1.12086 14.5597 0.689399 15.3073 0.884157 16.0344L2.38079 21.6219C2.50114 22.0988 2.86918 22.4738 3.34359 22.6037C3.818 22.733 4.32537 22.5972 4.67144 22.2476C5.01751 21.898 5.14884 21.3897 5.01501 20.9163L4.36981 18.5083L8.60454 20.9537C9.25723 21.3303 10.0912 21.1065 10.4677 20.4543C10.8442 19.8017 10.6205 18.9677 9.96834 18.5912Z" fill="white"/>
<path d="M51.62 38.3775C51.4996 37.9006 51.1316 37.5261 50.6572 37.3962C50.1828 37.2669 49.6754 37.4027 49.3293 37.7523C48.9833 38.1014 48.8519 38.6102 48.9862 39.0836L49.6309 41.4911L45.3957 39.0462C44.7435 38.6696 43.9096 38.8934 43.533 39.5456C43.1565 40.1977 43.3797 41.0322 44.0324 41.4087L48.2661 43.8532L45.8591 44.4979C45.3822 44.6182 45.0067 44.9863 44.8769 45.4607C44.7475 45.9356 44.8834 46.443 45.2329 46.789C45.5825 47.1356 46.0914 47.2664 46.5648 47.1321L52.1523 45.6355C52.8799 45.4402 53.3114 44.6926 53.1166 43.9655L51.62 38.3775Z" fill="white"/>
<path d="M44.7156 21.136C44.9543 21.136 45.189 21.0731 45.3957 20.9537L49.6309 18.5083L48.9862 20.9163C48.8519 21.3897 48.9832 21.8981 49.3293 22.2476C49.6754 22.5972 50.1827 22.733 50.6572 22.6037C51.1316 22.4738 51.4996 22.0988 51.62 21.6219L53.1171 16.0344C53.3113 15.3073 52.8799 14.5597 52.1528 14.3644L46.5653 12.8678C45.8422 12.6845 45.1061 13.116 44.9133 13.8366C44.7201 14.5567 45.1415 15.2988 45.8591 15.5015L48.2666 16.1467L44.0324 18.5912C43.4976 18.8998 43.2369 19.5295 43.3967 20.1258C43.557 20.7225 44.0978 21.1365 44.7156 21.136Z" fill="white"/>
<path d="M8.60448 39.0462L4.36975 41.4911L5.01445 39.0836C5.14828 38.6102 5.01745 38.1014 4.67138 37.7523C4.32531 37.4027 3.81794 37.2669 3.34303 37.3962C2.86862 37.5261 2.50108 37.9006 2.38023 38.3775L0.883096 43.9655C0.688838 44.6926 1.1203 45.4402 1.84739 45.6355L7.43493 47.1321C7.90834 47.2659 8.41671 47.1346 8.76578 46.7885C9.11534 46.4425 9.25117 45.9356 9.12183 45.4612C8.99249 44.9868 8.61746 44.6187 8.14105 44.4979L5.73355 43.8532L9.96778 41.4087C10.62 41.0322 10.8437 40.1977 10.4672 39.5456C10.0906 38.8934 9.25666 38.6696 8.60398 39.0462H8.60448Z" fill="white"/>
</svg>
