<svg width="25" height="32" viewBox="0 0 25 32" fill="none" xmlns="http://www.w3.org/2000/svg">
<path d="M24.7023 16.0649V29.5024C24.7023 30.9087 23.821 32.0024 22.696 32.0024H19.9523C18.8273 32.0024 17.946 30.9024 17.946 29.5024V16.0649C17.946 14.6587 18.8273 13.5649 19.9523 13.5649H22.696C23.8148 13.5649 24.7023 14.6649 24.7023 16.0649Z" fill="white"/>
<path d="M24.746 8.18369C24.5585 8.31494 24.3147 8.32119 24.1147 8.20244L22.2397 7.07744C19.1522 12.1899 14.796 17.0024 6.3835 17.0024C4.6085 17.0024 2.65225 16.7899 0.489748 16.3149C0.177248 16.2462 -0.022752 15.9399 0.039748 15.6212C0.102248 15.3337 0.364748 15.1399 0.658498 15.1649C1.1835 15.2087 13.3835 16.0274 18.5085 4.74619L16.5897 3.81494C16.3022 3.67744 16.1772 3.32744 16.3147 3.03994C16.3772 2.90869 16.4835 2.80869 16.6147 2.75244L22.9835 0.0461919C23.2772 -0.0788081 23.621 0.0586919 23.746 0.352442C23.7647 0.396192 23.7772 0.439942 23.7835 0.483692L24.9897 7.60244C25.0335 7.82744 24.9335 8.05869 24.746 8.18369Z" fill="white"/>
<path d="M15.896 21.0025V29.5025C15.896 30.9087 15.0148 32.0025 13.8898 32.0025H11.1398C10.0148 32.0025 9.13354 30.9025 9.13354 29.5025V21.0025C9.13354 19.5962 10.0148 18.5025 11.1398 18.5025H13.8835C15.0148 18.4962 15.896 19.5962 15.896 21.0025Z" fill="white"/>
<path d="M7.2835 25.1148V29.5023C7.2835 30.9023 6.40225 32.0023 5.27725 32.0023H2.52725C1.40225 32.0023 0.520996 30.9023 0.520996 29.5023V25.1148C0.520996 23.7085 1.40225 22.6148 2.52725 22.6148H5.271C6.40225 22.6085 7.2835 23.7085 7.2835 25.1148Z" fill="white"/>
</svg>
