<svg width="30" height="32" viewBox="0 0 30 32" fill="none" xmlns="http://www.w3.org/2000/svg">
<path d="M8.22085 14.9325L5.86235 13.5713C5.48736 13.3549 5.00058 13.4837 4.78339 13.8601L0.645034 21.0291C0.427643 21.4057 0.557104 21.8903 0.933755 22.1078L3.29226 23.4698C3.66757 23.6865 4.15382 23.5569 4.37121 23.1804L8.51024 16.0113C8.72663 15.6364 8.59637 15.1493 8.22085 14.9325ZM14.1282 29.6099L13.5143 30.4832C12.786 31.5223 14.3515 32.6191 15.079 31.584L15.6929 30.7108C16.4208 29.6753 14.857 28.5734 14.1282 29.6099ZM16.227 16.7227C14.9384 16.439 14.1771 16.5457 13.1587 17.3814C12.6864 17.7689 12.1496 18.3076 11.7103 18.7403L11.0153 19.4223L10.8789 22.2881C10.8701 22.475 10.893 22.7258 11.0673 22.8353C11.3731 23.0273 11.9692 22.7734 12.2444 22.6247C12.8272 22.31 13.2565 21.1022 13.602 20.4504C13.6294 20.3987 13.6736 20.3572 13.7268 20.3327C14.7218 19.8734 15.7669 19.2627 16.8513 19.8905L23.3203 23.6358L25.2424 22.654L21.7525 16.6081C19.8769 17.169 18.1193 17.1394 16.227 16.7227ZM23.176 24.175L16.5811 20.3571C15.7541 19.8783 14.8559 20.3939 14.0557 20.774C13.8834 20.8936 13.4077 22.6084 12.5001 23.0987C12.0157 23.3603 11.2953 23.6148 10.7799 23.2909C10.4262 23.0685 10.3218 22.6593 10.3407 22.2628L10.4821 19.2902C10.4854 19.2218 10.5148 19.1568 10.5639 19.1091L11.9536 17.7482L8.78343 16.6157L5.24717 22.7402L7.40942 25.44L8.15259 24.3845C8.67176 23.647 9.55633 23.5565 10.2294 24.0294C10.5496 24.2544 10.7123 24.51 10.8403 24.8652L10.9109 24.803C11.941 23.8952 13.5685 24.8976 13.3668 26.1683L13.3538 26.2499L13.4361 26.242C14.5635 26.1333 15.6362 27.3906 14.869 28.5557L14.8064 28.6508L14.9201 28.6549C15.9421 28.6917 16.7892 29.773 16.2636 30.8057L16.2362 30.8597L17.8224 31.7828C18.9162 32.4192 19.8738 30.7691 18.7924 30.134L17.0095 29.0957C16.7032 28.9174 16.9751 28.4524 17.2803 28.6302L19.613 29.9882C20.7064 30.6246 21.6651 28.9743 20.5829 28.3394L18.3986 27.0678C18.0931 26.8899 18.3626 26.4237 18.6695 26.6023L21.5448 28.2763C22.6393 28.9148 23.6031 27.2601 22.5077 26.6225L21.9288 26.2858L19.7878 25.0391C19.4822 24.8612 19.7524 24.395 20.0595 24.5738L22.2155 25.829C23.3089 26.4655 24.2714 24.8091 23.176 24.175ZM29.8945 21.0291L25.756 13.8601C25.5386 13.4834 25.0521 13.355 24.6774 13.5713L22.3189 14.9325C21.9431 15.1495 21.8133 15.6367 22.0296 16.0112L26.1686 23.1803C26.3859 23.5567 26.8717 23.6866 27.2473 23.4697L29.6058 22.1077C29.9825 21.8903 30.1119 21.4057 29.8945 21.0291ZM14.3961 28.293C15.1245 27.2578 13.5598 26.1555 12.8314 27.1914L11.1195 29.6259C10.3918 30.661 11.9562 31.7622 12.6848 30.7261L13.6917 29.2938L14.3961 28.293ZM10.1584 25.7944C10.8853 24.7621 9.32274 23.6573 8.59317 24.6941L7.36788 26.4353C6.63985 27.47 8.20298 28.5732 8.93255 27.5362L10.1584 25.7944ZM11.0865 25.4107L9.37307 27.8467L9.00982 28.3626C8.28005 29.3991 9.84645 30.5012 10.5751 29.4635L12.6514 26.5117C13.3801 25.4772 11.8159 24.3737 11.0865 25.4107Z" fill="white"/>
<path fill-rule="evenodd" clip-rule="evenodd" d="M15.2875 13.4965C16.6221 13.4965 17.9268 13.1007 19.0366 12.3592C20.1463 11.6177 21.0113 10.5638 21.522 9.3307C22.0328 8.09762 22.1664 6.74077 21.9061 5.43174C21.6457 4.1227 21.003 2.92028 20.0592 1.97652C19.1154 1.03276 17.913 0.390052 16.604 0.129669C15.295 -0.130714 13.9381 0.00292391 12.705 0.513683C11.4719 1.02444 10.418 1.88938 9.6765 2.99913C8.93499 4.10887 8.53922 5.41358 8.53922 6.74825C8.54082 8.53751 9.25231 10.253 10.5175 11.5182C11.7827 12.7834 13.4982 13.4949 15.2875 13.4965ZM12.6328 6.57161C12.6504 6.64504 12.6823 6.71428 12.7267 6.77539L13.9663 8.48365C14.0188 8.5578 14.0887 8.61793 14.1698 8.65879C14.2509 8.69964 14.3408 8.71996 14.4316 8.71797C14.565 8.71823 14.6945 8.67267 14.7983 8.58891L18.2048 5.79723C18.3194 5.6994 18.3911 5.56053 18.4045 5.41043C18.4178 5.26033 18.3717 5.11099 18.2762 4.99448C18.1806 4.87798 18.0432 4.8036 17.8933 4.78733C17.7435 4.77106 17.5933 4.81419 17.475 4.90746L14.5372 7.31203L13.6573 6.09955C13.6129 6.03845 13.5569 5.98668 13.4925 5.94722C13.4282 5.90775 13.3566 5.88135 13.282 5.86952C13.2075 5.85769 13.1313 5.86067 13.0578 5.87829C12.9844 5.8959 12.9152 5.92781 12.8541 5.97219C12.793 6.01656 12.7412 6.07254 12.7017 6.13692C12.6623 6.2013 12.6359 6.27282 12.624 6.34741C12.6122 6.42199 12.6152 6.49818 12.6328 6.57161Z" fill="white"/>
</svg>
