<svg width="38" height="32" viewBox="0 0 38 32" fill="none" xmlns="http://www.w3.org/2000/svg">
<path d="M29.5296 10.0396C31.089 10.0396 32.3531 8.7755 32.3531 7.21611C32.3531 5.65672 31.089 4.39258 29.5296 4.39258C27.9702 4.39258 26.7061 5.65672 26.7061 7.21611C26.7061 8.7755 27.9702 10.0396 29.5296 10.0396Z" fill="white"/>
<path d="M17.294 3.76471C18.3336 3.76471 19.1763 2.92195 19.1763 1.88235C19.1763 0.842758 18.3336 0 17.294 0C16.2544 0 15.4116 0.842758 15.4116 1.88235C15.4116 2.92195 16.2544 3.76471 17.294 3.76471Z" fill="white"/>
<path d="M35.8602 18.1583C29.0674 19.5136 29.4753 19.4509 29.2155 19.4509C28.5622 19.4513 27.9559 19.1113 27.6155 18.5536L25.3379 14.8579L23.1794 18.0956L27.5465 20.2791C27.9102 20.4612 28.2052 20.7561 28.3873 21.1199L31.5245 27.3944C31.8656 27.9997 31.8455 28.7435 31.4723 29.3295C31.0991 29.9155 30.4335 30.2483 29.7408 30.1953C29.0481 30.1422 28.441 29.7119 28.1614 29.076L25.3002 23.3662L20.4312 20.9254L14.9975 23.6422C14.4119 23.9386 13.7137 23.9052 13.159 23.5544L8.13944 20.4171C7.5345 20.0773 7.16554 19.4323 7.17933 18.7386C7.19311 18.0449 7.58741 17.415 8.20537 17.0995C8.82334 16.784 9.56476 16.834 10.1347 17.2297L14.2571 19.8022C17.2061 18.3302 16.0767 18.8943 19.1449 17.3615C19.1832 17.2987 18.9567 17.64 23.1669 11.3316C23.1248 11.2689 23.4398 11.294 19.3269 11.294L16.7418 13.8791C16.158 14.4619 15.2627 14.5967 14.5332 14.2116H14.5269V14.2054C14.0026 13.9244 13.6419 13.4122 13.5542 12.8239C13.4664 12.2356 13.6619 11.6404 14.0814 11.2187L17.2187 8.08145C17.5735 7.73166 18.0506 7.53364 18.5488 7.5293H24.1959C24.8506 7.52997 25.4583 7.86943 25.8022 8.42655L30.1316 15.4666L35.1198 14.4689C35.7881 14.3135 36.4881 14.5341 36.9465 15.0446C37.405 15.5551 37.5494 16.2746 37.3234 16.9224C37.0974 17.5703 36.5367 18.0438 35.8602 18.1583Z" fill="white"/>
<path d="M17.043 6.66399C16.7813 6.80516 16.5422 6.98495 16.334 7.19732L14.9787 8.55262L14.163 7.2287L12.5944 9.58791L13.4979 10.0334L13.1968 10.3346C12.6235 10.9109 12.2953 11.6865 12.2807 12.4993L10.5866 11.6522L6.62736 13.635C6.19913 13.8481 5.69109 13.8244 5.28461 13.5722L1.62657 11.282C1.20413 11.025 0.95255 10.5607 0.967954 10.0664C0.983359 9.57217 1.26337 9.1244 1.701 8.89418C2.13862 8.66397 2.66624 8.68689 3.08226 8.95419L6.08775 10.8365L9.6454 9.05458L12.5819 4.65615L12.5693 4.62477H9.78343L7.90108 6.5134C7.55474 6.86086 7.04935 6.99716 6.57527 6.87095C6.1012 6.74474 5.73046 6.3752 5.60272 5.90154C5.47498 5.42787 5.60965 4.92204 5.95598 4.57458L8.24618 2.28438C8.50463 2.02738 8.85424 1.88302 9.21873 1.88281H13.3348C13.811 1.88205 14.2532 2.1293 14.5019 2.53536L17.043 6.66399Z" fill="white"/>
<path d="M18.5175 16.0374L18.2854 16.3887L16.152 17.4554L15.2673 15.6797C15.3153 15.6849 15.3635 15.687 15.4116 15.686C16.2441 15.6896 17.0427 15.357 17.6265 14.7637L17.796 14.5942L18.5175 16.0374Z" fill="white"/>
<path d="M37.3726 32.0005H16.6668C16.3202 32.0005 16.0393 31.7196 16.0393 31.3731C16.0393 31.0265 16.3202 30.7456 16.6668 30.7456H37.3726C37.7192 30.7456 38.0001 31.0265 38.0001 31.3731C38.0001 31.7196 37.7192 32.0005 37.3726 32.0005Z" fill="white"/>
<path d="M14.1568 32.0005H12.9019C12.5553 32.0005 12.2744 31.7196 12.2744 31.3731C12.2744 31.0265 12.5553 30.7456 12.9019 30.7456H14.1568C14.5033 30.7456 14.7842 31.0265 14.7842 31.3731C14.7842 31.7196 14.5033 32.0005 14.1568 32.0005Z" fill="white"/>
</svg>
