<svg width="32" height="28" viewBox="0 0 32 28" fill="none" xmlns="http://www.w3.org/2000/svg">
<path d="M23.25 0H18.25C17.8358 0 17.5 0.335786 17.5 0.75V2.25C17.5 2.66421 17.8358 3 18.25 3H23.25C23.6642 3 24 2.66421 24 2.25V0.75C24 0.335786 23.6642 0 23.25 0Z" fill="white"/>
<path d="M8.75 11H3.75C3.55109 11 3.36032 11.079 3.21967 11.2197C3.07902 11.3603 3 11.5511 3 11.75C3 11.9489 3.07902 12.1397 3.21967 12.2803C3.36032 12.421 3.55109 12.5 3.75 12.5H8.75C8.94891 12.5 9.13968 12.421 9.28033 12.2803C9.42098 12.1397 9.5 11.9489 9.5 11.75C9.5 11.5511 9.42098 11.3603 9.28033 11.2197C9.13968 11.079 8.94891 11 8.75 11Z" fill="white"/>
<path d="M8.5 17.75C8.5 17.5511 8.42098 17.3603 8.28033 17.2197C8.13968 17.079 7.94891 17 7.75 17H2.75C2.55109 17 2.36032 17.079 2.21967 17.2197C2.07902 17.3603 2 17.5511 2 17.75C2 17.9489 2.07902 18.1397 2.21967 18.2803C2.36032 18.421 2.55109 18.5 2.75 18.5H7.75C7.94891 18.5 8.13968 18.421 8.28033 18.2803C8.42098 18.1397 8.5 17.9489 8.5 17.75Z" fill="white"/>
<path d="M8.25 20H4.75C4.55109 20 4.36032 20.079 4.21967 20.2197C4.07902 20.3603 4 20.5511 4 20.75C4 20.9489 4.07902 21.1397 4.21967 21.2803C4.36032 21.421 4.55109 21.5 4.75 21.5H8.25C8.44891 21.5 8.63968 21.421 8.78033 21.2803C8.92098 21.1397 9 20.9489 9 20.75C9 20.5511 8.92098 20.3603 8.78033 20.2197C8.63968 20.079 8.44891 20 8.25 20Z" fill="white"/>
<path d="M8.5 14.75C8.5 14.5511 8.42098 14.3603 8.28033 14.2197C8.13968 14.079 7.94891 14 7.75 14H1.25C1.05109 14 0.860322 14.079 0.71967 14.2197C0.579018 14.3603 0.5 14.5511 0.5 14.75C0.5 14.9489 0.579018 15.1397 0.71967 15.2803C0.860322 15.421 1.05109 15.5 1.25 15.5H7.75C7.94891 15.5 8.13968 15.421 8.28033 15.2803C8.42098 15.1397 8.5 14.9489 8.5 14.75Z" fill="white"/>
<path d="M20.75 16.25V7.75C16.0631 7.75 12.25 11.5631 12.25 16.25C12.25 20.9369 16.0631 24.75 20.75 24.75C25.4369 24.75 29.25 20.9369 29.25 16.25H20.75Z" fill="white"/>
<path d="M28.9761 8.58456L29.7803 7.78031C29.8509 7.71088 29.907 7.62816 29.9455 7.53692C29.9839 7.44568 30.0039 7.34774 30.0043 7.24873C30.0047 7.14973 29.9855 7.05163 29.9478 6.96008C29.9101 6.86853 29.8547 6.78536 29.7847 6.71535C29.7146 6.64534 29.6315 6.58989 29.5399 6.55219C29.4484 6.51449 29.3503 6.49528 29.2513 6.49569C29.1523 6.49609 29.0543 6.51609 28.9631 6.55454C28.8718 6.59298 28.7891 6.64911 28.7197 6.71969L27.8827 7.55663C26.2708 6.22877 24.3198 5.37788 22.25 5.1V3.75H19.25V5.1C17.1802 5.37777 15.2293 6.22853 13.6173 7.55625L12.7803 6.71931C12.7109 6.64874 12.6282 6.59261 12.5369 6.55416C12.4457 6.51572 12.3477 6.49572 12.2487 6.49531C12.1497 6.49491 12.0516 6.51411 11.9601 6.55181C11.8685 6.58951 11.7854 6.64497 11.7154 6.71498C11.6453 6.78498 11.5899 6.86816 11.5522 6.9597C11.5145 7.05125 11.4953 7.14936 11.4957 7.24836C11.4961 7.34736 11.5161 7.44531 11.5545 7.53655C11.593 7.62778 11.6491 7.7105 11.7197 7.77994L12.5239 8.58419C10.579 10.6627 9.49792 13.4034 9.5 16.25C9.5 22.4533 14.5468 27.5 20.75 27.5C26.9533 27.5 32 22.4533 32 16.25C32.002 13.4036 30.9209 10.663 28.9761 8.58456ZM20.75 25.5C18.9205 25.5 17.1321 24.9575 15.611 23.9411C14.0898 22.9247 12.9042 21.48 12.2041 19.7898C11.504 18.0996 11.3208 16.2397 11.6777 14.4454C12.0347 12.6511 12.9156 11.0029 14.2093 9.70926C15.5029 8.41563 17.1511 7.53465 18.9454 7.17774C20.7397 6.82082 22.5996 7.004 24.2898 7.70411C25.98 8.40422 27.4247 9.58982 28.4411 11.111C29.4575 12.6321 30 14.4205 30 16.25C30 17.4647 29.7607 18.6676 29.2959 19.7898C28.831 20.9121 28.1497 21.9318 27.2907 22.7907C26.4318 23.6497 25.4121 24.331 24.2898 24.7959C23.1676 25.2607 21.9647 25.5 20.75 25.5Z" fill="white"/>
</svg>
