<svg width="25" height="28" viewBox="0 0 25 28" fill="none" xmlns="http://www.w3.org/2000/svg">
<path d="M13.7 6.36154H9.29999C9.36437 6.047 9.49542 5.74992 9.6843 5.49031C9.87319 5.2307 10.1155 5.01459 10.395 4.85654C10.7306 4.6619 11.112 4.56009 11.5 4.56154C11.8758 4.56119 12.2455 4.65579 12.575 4.83654C12.862 4.99373 13.1114 5.2116 13.3057 5.47497C13.5 5.73833 13.6345 6.04088 13.7 6.36154Z" fill="white"/>
<path d="M18.16 0.861728L14.055 4.80173C13.8476 4.5375 13.5995 4.30796 13.32 4.12173L17.465 0.141728C17.5122 0.0957918 17.568 0.0596311 17.6293 0.0353204C17.6905 0.0110097 17.7559 -0.000972378 17.8218 6.16524e-05C17.8876 0.00109568 17.9527 0.0151254 18.0131 0.041346C18.0735 0.0675665 18.1282 0.105462 18.1739 0.152857C18.2197 0.200253 18.2556 0.256215 18.2797 0.317535C18.3038 0.378854 18.3155 0.444322 18.3142 0.510183C18.3129 0.576045 18.2986 0.641002 18.2722 0.701329C18.2457 0.761656 18.2076 0.816165 18.16 0.861728Z" fill="white"/>
<path d="M5.47999 0.14153L9.64999 4.14153C9.37063 4.33014 9.12403 4.56322 8.91999 4.83153L4.78999 0.86153C4.74251 0.816274 4.70442 0.762094 4.67791 0.702094C4.6514 0.642093 4.63699 0.577452 4.6355 0.511872C4.63402 0.446293 4.64549 0.381065 4.66925 0.319926C4.69302 0.258786 4.72861 0.202937 4.774 0.155577C4.81939 0.108217 4.87367 0.0702784 4.93374 0.0439338C4.99382 0.0175893 5.0585 0.00335673 5.12408 0.0020518C5.18966 0.000746884 5.25486 0.0123952 5.31593 0.0363292C5.37701 0.0602633 5.43276 0.0960128 5.47999 0.14153Z" fill="white"/>
<path d="M2.51 25.8618H4.595L4.435 26.9718C4.43914 27.0326 4.41957 27.0925 4.38041 27.1392C4.34125 27.1858 4.28555 27.2154 4.225 27.2218H2.56C2.49946 27.2154 2.44375 27.1858 2.40459 27.1392C2.36543 27.0925 2.34586 27.0326 2.35 26.9718L2.51 25.8618Z" fill="white"/>
<path d="M22.65 26.9718C22.6541 27.0326 22.6346 27.0925 22.5954 27.1392C22.5562 27.1858 22.5005 27.2154 22.44 27.2218L20.775 27.2168C20.7141 27.2112 20.6579 27.1818 20.6186 27.135C20.5793 27.0882 20.56 27.0277 20.565 26.9668L20.405 25.8618H22.49L22.65 26.9718Z" fill="white"/>
<path d="M8.97601 18.5699L13.001 16.1099L8.97601 13.6499V18.5699Z" fill="white"/>
<path d="M18.7917 9.85986H2.85425C2.72168 9.86 2.59458 9.91272 2.50084 10.0065C2.4071 10.1002 2.35438 10.2273 2.35425 10.3599V21.8599C2.35438 21.9924 2.4071 22.1195 2.50084 22.2133C2.59458 22.307 2.72168 22.3597 2.85425 22.3599H18.7917C18.9243 22.3597 19.0514 22.307 19.1452 22.2133C19.2389 22.1195 19.2916 21.9924 19.2917 21.8599V10.3599C19.2916 10.2273 19.2389 10.1002 19.1452 10.0065C19.0514 9.91272 18.9243 9.86 18.7917 9.85986ZM13.7954 16.7964L9.20019 19.605C9.07823 19.6795 8.93837 19.7202 8.79547 19.7229C8.65256 19.7256 8.51152 19.6901 8.38686 19.6202C8.26219 19.5503 8.1584 19.4484 8.08616 19.3251C8.01392 19.2018 7.97584 19.0614 7.97583 18.9185V13.3013C7.97584 13.1583 8.01392 13.018 8.08616 12.8947C8.1584 12.7713 8.26219 12.6695 8.38686 12.5996C8.51152 12.5296 8.65256 12.4942 8.79547 12.4969C8.93837 12.4995 9.07799 12.5402 9.19995 12.6148L13.7957 15.4234C13.9133 15.4952 14.0105 15.5961 14.0779 15.7163C14.1453 15.8366 14.1807 15.9721 14.1807 16.11C14.1806 16.2478 14.1452 16.3833 14.0777 16.5035C14.0103 16.6237 13.9131 16.7246 13.7954 16.7964Z" fill="white"/>
<path d="M22.292 15.3286C22.5681 15.3286 22.792 15.1048 22.792 14.8286C22.792 14.5525 22.5681 14.3286 22.292 14.3286C22.0158 14.3286 21.792 14.5525 21.792 14.8286C21.792 15.1048 22.0158 15.3286 22.292 15.3286Z" fill="white"/>
<path d="M22.5 7.36182H2.5C2.17161 7.36152 1.84639 7.42598 1.54294 7.55151C1.23949 7.67704 0.963773 7.86118 0.731566 8.09338C0.49936 8.32559 0.315224 8.60131 0.189693 8.90475C0.0641621 9.2082 -0.000298205 9.53343 1.03711e-06 9.86182V22.3618C0.000240901 23.0248 0.26371 23.6605 0.732499 24.1293C1.20129 24.5981 1.83703 24.8616 2.5 24.8618H22.5C23.163 24.8616 23.7987 24.5981 24.2675 24.1293C24.7363 23.6605 24.9998 23.0248 25 22.3618V9.86182C25.0003 9.53343 24.9358 9.2082 24.8103 8.90475C24.6848 8.60131 24.5006 8.32559 24.2684 8.09338C24.0362 7.86118 23.7605 7.67704 23.4571 7.55151C23.1536 7.42598 22.8284 7.36152 22.5 7.36182ZM20.2918 21.86C20.2913 22.2576 20.1331 22.6389 19.8519 22.9201C19.5707 23.2013 19.1894 23.3595 18.7918 23.36H2.85425C2.45656 23.3595 2.07528 23.2013 1.79407 22.9201C1.51286 22.6389 1.35469 22.2576 1.35425 21.86V10.36C1.35469 9.96227 1.51286 9.58099 1.79407 9.29978C2.07528 9.01857 2.45656 8.86039 2.85425 8.85996H18.7918C19.1894 8.86039 19.5707 9.01857 19.8519 9.29978C20.1331 9.58099 20.2913 9.96227 20.2918 10.36V21.86ZM23.2918 22.3287H21.2918C21.1591 22.3287 21.032 22.276 20.9382 22.1823C20.8444 22.0885 20.7918 21.9613 20.7918 21.8287C20.7918 21.6961 20.8444 21.5689 20.9382 21.4752C21.032 21.3814 21.1591 21.3287 21.2918 21.3287H23.2918C23.4244 21.3287 23.5515 21.3814 23.6453 21.4752C23.7391 21.5689 23.7918 21.6961 23.7918 21.8287C23.7918 21.9613 23.7391 22.0885 23.6453 22.1823C23.5515 22.276 23.4244 22.3287 23.2918 22.3287ZM23.2918 20.3287H21.2918C21.1591 20.3287 21.032 20.276 20.9382 20.1823C20.8444 20.0885 20.7918 19.9613 20.7918 19.8287C20.7918 19.6961 20.8444 19.5689 20.9382 19.4752C21.032 19.3814 21.1591 19.3287 21.2918 19.3287H23.2918C23.4244 19.3287 23.5515 19.3814 23.6453 19.4752C23.7391 19.5689 23.7918 19.6961 23.7918 19.8287C23.7918 19.9613 23.7391 20.0885 23.6453 20.1823C23.5515 20.276 23.4244 20.3287 23.2918 20.3287ZM23.2918 18.3287H21.2918C21.1591 18.3287 21.032 18.276 20.9382 18.1823C20.8444 18.0885 20.7918 17.9613 20.7918 17.8287C20.7918 17.6961 20.8444 17.5689 20.9382 17.4752C21.032 17.3814 21.1591 17.3287 21.2918 17.3287H23.2918C23.4244 17.3287 23.5515 17.3814 23.6453 17.4752C23.7391 17.5689 23.7918 17.6961 23.7918 17.8287C23.7918 17.9613 23.7391 18.0885 23.6453 18.1823C23.5515 18.276 23.4244 18.3287 23.2918 18.3287ZM22.2918 16.3287C21.9951 16.3287 21.7051 16.2407 21.4584 16.0759C21.2117 15.9111 21.0195 15.6768 20.9059 15.4027C20.7924 15.1286 20.7627 14.827 20.8206 14.5361C20.8785 14.2451 21.0213 13.9778 21.2311 13.768C21.4409 13.5583 21.7081 13.4154 21.9991 13.3575C22.2901 13.2997 22.5917 13.3294 22.8658 13.4429C23.1399 13.5564 23.3741 13.7487 23.539 13.9954C23.7038 14.242 23.7918 14.532 23.7918 14.8287C23.7913 15.2264 23.6331 15.6077 23.3519 15.8889C23.0707 16.1701 22.6894 16.3283 22.2918 16.3287ZM22.2918 12.8912C21.9951 12.8912 21.7051 12.8032 21.4584 12.6384C21.2117 12.4736 21.0195 12.2393 20.9059 11.9652C20.7924 11.6911 20.7627 11.3895 20.8206 11.0986C20.8785 10.8076 21.0213 10.5403 21.2311 10.3305C21.4409 10.1208 21.7081 9.97791 21.9991 9.92003C22.2901 9.86215 22.5917 9.89186 22.8658 10.0054C23.1399 10.1189 23.3741 10.3112 23.539 10.5579C23.7038 10.8045 23.7918 11.0945 23.7918 11.3912C23.7913 11.7889 23.6331 12.1702 23.3519 12.4514C23.0707 12.7326 22.6894 12.8908 22.2918 12.8912Z" fill="white"/>
<path d="M22.292 11.8911C22.5681 11.8911 22.792 11.6673 22.792 11.3911C22.792 11.115 22.5681 10.8911 22.292 10.8911C22.0158 10.8911 21.792 11.115 21.792 11.3911C21.792 11.6673 22.0158 11.8911 22.292 11.8911Z" fill="white"/>
</svg>
