<svg width="32" height="32" viewBox="0 0 32 32" fill="none" xmlns="http://www.w3.org/2000/svg">
<path fill-rule="evenodd" clip-rule="evenodd" d="M7.4005 8.43018C7.56062 8.77125 7.90081 8.98968 8.27819 8.98968H12.9925V10.655C12.9925 11.1907 13.4271 11.6247 13.9645 11.6247C14.4991 11.6247 14.9337 11.1907 14.9337 10.655V8.98968H15.3797C15.9171 8.98968 16.3488 8.55568 16.3488 8.01968C16.3488 7.48425 15.9171 7.05025 15.3797 7.05025H14.9337V1.23068C14.9337 0.822746 14.6793 0.458496 14.2961 0.319871C13.9131 0.180371 13.4814 0.295559 13.2212 0.608309L7.53487 7.39725C7.29181 7.68568 7.24038 8.08887 7.4005 8.43018ZM32 15.877C32 20.1493 30.3364 24.1697 27.3153 27.1908C24.2938 30.2122 20.2729 31.877 16 31.877C11.7271 31.877 7.70625 30.2122 4.68481 27.1908C1.66363 24.1697 0 20.1493 0 15.877C0 15.0741 0.651 14.4221 1.454 14.4221C2.2585 14.4221 2.908 15.0728 2.908 15.877C2.908 23.0945 8.78281 28.9678 15.9999 28.9678C23.2171 28.9678 29.0919 23.0945 29.0919 15.877C29.0919 9.33056 24.2046 3.744 17.7098 2.89706C16.9152 2.79343 16.3543 2.06137 16.4569 1.26718C16.5596 0.472246 17.2924 -0.0914414 18.0869 0.0123086C21.9164 0.512371 25.4282 2.38775 27.9873 5.27975C30.5767 8.20593 32 11.9698 32 15.877ZM12.9924 3.89912V7.05018H10.3566L12.9924 3.89912ZM17.9012 24.4977C17.6124 24.9486 17.7439 25.5486 18.1956 25.8371C18.3557 25.9406 18.5387 25.9903 18.7159 25.9903C19.0361 25.9903 19.3477 25.8328 19.5336 25.5437L25.5715 16.1194C25.7631 15.8204 25.7745 15.4416 25.6058 15.1308C25.4342 14.8197 25.1084 14.6265 24.7539 14.6265H19.2419C18.7044 14.6265 18.2728 15.0605 18.2728 15.5962C18.2728 16.132 18.7045 16.566 19.2419 16.566H22.9814L17.9012 24.4977ZM22.9785 6.67856C23.3559 7.05737 23.3559 7.67143 22.9785 8.05031L8.68412 22.3447C8.49263 22.5339 8.24675 22.6286 7.998 22.6286C7.74931 22.6286 7.50056 22.5339 7.31187 22.3447C6.9345 21.9659 6.9345 21.3521 7.31187 20.9733L21.6063 6.67856C21.9836 6.29975 22.5983 6.29975 22.9785 6.67856ZM5.96819 4.64706C6.21406 3.74825 6.05969 3.07068 5.50787 2.63381C4.8875 2.14462 3.86119 2.05862 3.16363 2.43737C2.63475 2.72525 2.40031 3.22268 2.46894 3.91543C2.51756 4.44887 2.12875 4.92293 1.59413 4.97381C1.06238 5.02412 0.587813 4.63443 0.536313 4.10156C0.39625 2.62637 1.01375 1.39906 2.23738 0.734371C3.60681 -0.0123789 5.48794 0.147184 6.7115 1.11318C7.87794 2.03687 8.28963 3.51125 7.84075 5.15793C7.53769 6.2695 6.49706 7.08 5.29631 8.01881C4.6445 8.526 3.94406 9.072 3.358 9.68525H7.37475C7.90938 9.68525 8.34394 10.1192 8.34394 10.655C8.34394 11.1907 7.90938 11.6247 7.37475 11.6247H1.474C1.14237 11.6247 0.83075 11.4526 0.6535 11.1696C0.47625 10.8866 0.45625 10.5321 0.602063 10.2314C1.39112 8.60493 2.832 7.48112 4.10131 6.49025C4.95325 5.82462 5.83669 5.13675 5.96819 4.64706Z" fill="white"/>
</svg>
