<svg width="45" height="26" viewBox="0 0 45 26" fill="none" xmlns="http://www.w3.org/2000/svg">
<path id="Vector" fill-rule="evenodd" clip-rule="evenodd" d="M0 15.6349C0 17.2441 0.351729 18.3797 1.17991 19.6203C2.89428 22.1884 5.61261 24.0366 8.2562 25.136C12.8384 26.8335 17.1096 28.0074 22.0124 28.0074V30L27.0239 26.3625L22.0124 22.8973V25.0752C20.0825 25.0752 17.1019 24.6742 15.3571 24.2822C13.8472 23.943 12.3775 23.6124 10.9191 23.0635C8.97373 22.3314 7.53055 21.6419 5.76026 20.5121C1.53442 17.5238 0.00218844 13.0093 4.81125 9.04412C6.17629 7.91865 7.50309 7.30832 9.1362 6.57787L9.55981 6.3884C9.19048 6.42306 8.76123 6.54335 8.40339 6.7054C5.79946 7.88468 3.1106 9.38651 1.32339 11.9061C0.741145 12.7269 0 14.1879 0 15.6349ZM33.7273 1.55859C31.7821 1.59134 27.8845 3.0485 27.2442 7.75138C28.9076 8.48836 30.1533 9.73403 30.9814 11.4885C30.8196 5.26327 33.1016 4.83297 34.0571 4.83992C35.1916 4.84813 38.113 5.80767 37.1658 14.2665H40.8368C42.0968 2.93588 36.5521 1.51105 33.7273 1.55859ZM24.1984 1.6065L18.7317 8.03537C20.4318 8.79529 21.4731 9.99663 21.8554 11.6394C24.2293 10.8435 25.6624 11.6923 26.1544 14.1858H30.0675C29.5222 10.1668 27.0921 8.24714 22.7989 8.69138L29.184 1.6065H24.1984ZM16.1173 8.44166L19.8877 4.34066V1.60663H8.72708V4.81201H14.6593L11.0396 8.86594V11.7414C16.2382 10.1775 17.4012 12.8094 17.0308 14.1057C16.8045 14.8976 15.7942 17.198 10.3359 14.7111L7.97301 17.3508C14.9001 20.8125 19.3749 18.2174 20.4487 15.6916C21.5266 13.1565 20.5676 8.78645 16.1173 8.44166ZM42.5865 1.72553C42.5865 2.21052 42.4173 2.61791 42.0804 2.952C41.7435 3.2847 41.3318 3.45106 40.8441 3.45106C40.3563 3.45106 39.9446 3.2847 39.6077 2.952C39.2708 2.61791 39.1016 2.21052 39.1016 1.72553C39.1016 1.24058 39.2708 0.833185 39.6077 0.499052C39.9446 0.16635 40.3563 0 40.8441 0C41.3346 0 41.7463 0.16635 42.0832 0.499052C42.4187 0.833185 42.5865 1.24058 42.5865 1.72553ZM41.6476 1.72696C41.6476 1.50141 41.5715 1.30824 41.4178 1.14753C41.2642 0.985431 41.0738 0.905056 40.8441 0.905056C40.6171 0.905056 40.4268 0.985432 40.2731 1.14471C40.118 1.30403 40.0405 1.49859 40.0405 1.72696C40.0405 1.9624 40.118 2.15692 40.2745 2.31199C40.431 2.46849 40.6199 2.546 40.8441 2.546C41.0738 2.546 41.2642 2.46566 41.4178 2.30634C41.5715 2.14707 41.6476 1.95394 41.6476 1.72696ZM46.4534 14.4191C46.4534 17.3588 44.0942 19.4512 42.2159 20.7269C38.7625 23.0723 33.5031 24.2333 29.5292 24.8078L29.5159 27.7928C33.7742 27.7928 41.1542 25.1693 44.6143 22.4296C45.6308 21.5308 46.656 20.6196 47.3546 19.3685C48.5959 17.1455 48.614 14.9584 47.4659 12.7055C46.6108 11.0275 44.5013 9.14841 42.8797 8.22113C42.5279 8.01996 42.0191 7.68595 41.6957 7.55341C41.7982 7.8899 41.9726 7.94948 42.4135 8.24601C43.3491 8.87512 43.9369 9.40078 44.693 10.2532C45.1648 10.785 45.5682 11.3002 45.8835 11.9864C46.1827 12.6377 46.4534 13.4318 46.4534 14.4191Z" fill="#000"/>
</svg>
